<?xml version="1.0" encoding="iso-8859-1"?>
<!-- Generator: Adobe Illustrator 19.0.0, SVG Export Plug-In . SVG Version: 6.00 Build 0)  -->
<svg version="1.1" id="Capa_1" xmlns="http://www.w3.org/2000/svg" xmlns:xlink="http://www.w3.org/1999/xlink" x="0px" y="0px"
	 viewBox="0 0 512 512" style="enable-background:new 0 0 512 512;" xml:space="preserve">
<linearGradient id="SVGID_1_" gradientUnits="userSpaceOnUse" x1="0" y1="258.0006" x2="512.0005" y2="258.0006" gradientTransform="matrix(1 0 0 -1 0 514.0009)">
	<stop  offset="0" style="stop-color:#80D8FF"/>
	<stop  offset="0.16" style="stop-color:#88D1FF"/>
	<stop  offset="0.413" style="stop-color:#9FBEFE"/>
	<stop  offset="0.725" style="stop-color:#C4A0FD"/>
	<stop  offset="1" style="stop-color:#EA80FC"/>
</linearGradient>
<path style="fill:url(#SVGID_1_);" d="M284.284,256L506.142,34.142c7.811-7.81,7.811-20.474,0-28.284
	c-7.811-7.811-20.474-7.811-28.284,0L256,227.716L34.142,5.858c-7.811-7.811-20.474-7.811-28.284,0
	c-7.811,7.81-7.811,20.474,0,28.284L227.716,256L5.858,477.858c-7.811,7.811-7.811,20.474,0,28.284c7.81,7.81,20.473,7.811,28.284,0
	L256,284.284l221.858,221.858c7.81,7.81,20.473,7.811,28.284,0s7.811-20.474,0-28.284L284.284,256z"/>
<g>
</g>
<g>
</g>
<g>
</g>
<g>
</g>
<g>
</g>
<g>
</g>
<g>
</g>
<g>
</g>
<g>
</g>
<g>
</g>
<g>
</g>
<g>
</g>
<g>
</g>
<g>
</g>
<g>
</g>
</svg>
