<?xml version="1.0" encoding="iso-8859-1"?>
<!-- Generator: Adobe Illustrator 19.0.0, SVG Export Plug-In . SVG Version: 6.00 Build 0)  -->
<svg version="1.1" id="Capa_1" xmlns="http://www.w3.org/2000/svg" xmlns:xlink="http://www.w3.org/1999/xlink" x="0px" y="0px"
	 viewBox="0 0 512 512" style="enable-background:new 0 0 512 512;" xml:space="preserve">
<g>
	<g>
		<path d="M119.83,245.106c-6.013,0-10.894,4.88-10.894,10.894c0,24.026-19.549,43.574-43.574,43.574S21.787,280.026,21.787,256
			s19.549-43.574,43.574-43.574c6.013,0,10.894-4.88,10.894-10.894c0-6.013-4.88-10.894-10.894-10.894
			C29.32,190.638,0,219.958,0,256c0,36.042,29.32,65.362,65.362,65.362c36.042,0,65.362-29.32,65.362-65.362
			C130.723,249.987,125.843,245.106,119.83,245.106z"/>
	</g>
</g>
<g>
	<g>
		<path d="M256,190.638c-36.042,0-65.362,29.32-65.362,65.362c0,36.042,29.32,65.362,65.362,65.362
			c6.013,0,10.894-4.88,10.894-10.894c0-6.013-4.88-10.894-10.894-10.894c-24.026,0-43.574-19.549-43.574-43.574
			s19.549-43.574,43.574-43.574s43.574,19.549,43.574,43.574c0,6.013,4.88,10.894,10.894,10.894c6.013,0,10.894-4.88,10.894-10.894
			C321.362,219.958,292.042,190.638,256,190.638z"/>
	</g>
</g>
<g>
	<g>
		<path d="M446.638,190.638c-6.013,0-10.894,4.88-10.894,10.894c0,6.013,4.88,10.894,10.894,10.894
			c24.026,0,43.574,19.549,43.574,43.574s-19.549,43.574-43.574,43.574S403.064,280.026,403.064,256
			c0-6.013-4.88-10.894-10.894-10.894s-10.894,4.88-10.894,10.894c0,36.042,29.32,65.362,65.362,65.362S512,292.042,512,256
			C512,219.958,482.68,190.638,446.638,190.638z"/>
	</g>
</g>
<g>
</g>
<g>
</g>
<g>
</g>
<g>
</g>
<g>
</g>
<g>
</g>
<g>
</g>
<g>
</g>
<g>
</g>
<g>
</g>
<g>
</g>
<g>
</g>
<g>
</g>
<g>
</g>
<g>
</g>
</svg>
