<?xml version="1.0" encoding="iso-8859-1"?>
<!-- Generator: Adobe Illustrator 19.0.0, SVG Export Plug-In . SVG Version: 6.00 Build 0)  -->
<svg version="1.1" id="Capa_1" xmlns="http://www.w3.org/2000/svg" xmlns:xlink="http://www.w3.org/1999/xlink" x="0px" y="0px"
	 viewBox="0 0 512 512" style="enable-background:new 0 0 512 512;" xml:space="preserve">
<path style="fill:#54BBFF;" d="M256,0l-61.811,256L256,512c141.385,0,256-114.615,256-256S397.385,0,256,0z"/>
<path style="fill:#8DD2FF;" d="M0,256c0,141.385,114.615,256,256,256V0C114.615,0,0,114.615,0,256z"/>
<path style="fill:#C6E8FF;" d="M256,30.905v450.189c124.316,0,225.095-100.778,225.095-225.095S380.316,30.905,256,30.905z"/>
<path style="fill:#FFFFFF;" d="M450.189,256c0-124.316-86.941-225.095-194.189-225.095C131.684,30.905,30.905,131.684,30.905,256
	S131.684,481.095,256,481.095C363.248,481.095,450.189,380.316,450.189,256z"/>
<path style="fill:#0C4870;" d="M256,457.915c-4.267,0-7.726-3.458-7.726-7.726V258.071l-80.607-139.614
	c-2.133-3.695-0.867-8.421,2.828-10.554c3.695-2.132,8.421-0.867,10.554,2.828l82.677,143.199v196.26
	C263.726,454.457,260.268,457.915,256,457.915z"/>
<g>
	<circle style="fill:#54BBFF;" cx="256" cy="61.811" r="7.726"/>
	<circle style="fill:#54BBFF;" cx="158.905" cy="87.823" r="7.726"/>
	<circle style="fill:#54BBFF;" cx="87.823" cy="158.905" r="7.726"/>
	<circle style="fill:#54BBFF;" cx="61.811" cy="256" r="7.726"/>
	<circle style="fill:#54BBFF;" cx="87.823" cy="353.095" r="7.726"/>
	<circle style="fill:#54BBFF;" cx="158.905" cy="424.177" r="7.726"/>
	<circle style="fill:#54BBFF;" cx="353.095" cy="424.177" r="7.726"/>
	<circle style="fill:#54BBFF;" cx="424.177" cy="353.095" r="7.726"/>
	<circle style="fill:#54BBFF;" cx="450.189" cy="256" r="7.726"/>
	<circle style="fill:#54BBFF;" cx="424.177" cy="158.905" r="7.726"/>
	<circle style="fill:#54BBFF;" cx="353.095" cy="87.823" r="7.726"/>
</g>
<circle style="fill:#0789DE;" cx="256" cy="256" r="15.453"/>
<g>
</g>
<g>
</g>
<g>
</g>
<g>
</g>
<g>
</g>
<g>
</g>
<g>
</g>
<g>
</g>
<g>
</g>
<g>
</g>
<g>
</g>
<g>
</g>
<g>
</g>
<g>
</g>
<g>
</g>
</svg>
