<?xml version="1.0" encoding="iso-8859-1"?>
<!-- Generator: Adobe Illustrator 19.0.0, SVG Export Plug-In . SVG Version: 6.00 Build 0)  -->
<svg version="1.1" id="Capa_1" xmlns="http://www.w3.org/2000/svg" xmlns:xlink="http://www.w3.org/1999/xlink" x="0px" y="0px"
	 viewBox="0 0 512 512" style="enable-background:new 0 0 512 512;" xml:space="preserve">
<g>
	<path style="fill:#006DF0;" d="M238.933,275.123c10.146,9.847,26.359,9.591,36.198-0.555c9.847-10.146,9.591-26.359-0.555-36.198
		c-10.146-9.847-26.359-9.591-36.198,0.555l-0.009,0.009C228.54,249.088,228.787,265.284,238.933,275.123z"/>
	<path style="fill:#006DF0;" d="M256,68.267c-4.71,0-8.533-3.823-8.533-8.533v-51.2C247.467,3.823,251.29,0,256,0
		c4.71,0,8.533,3.823,8.533,8.533v51.2C264.533,64.444,260.71,68.267,256,68.267z"/>
</g>
<g>
	<path style="fill:#231F20;" d="M214.502,29.227c-4.139,0-7.68-2.978-8.397-7.049l-1.485-8.405
		c-0.819-4.642,2.278-9.071,6.921-9.882c4.642-0.819,9.071,2.278,9.89,6.921l1.485,8.405c0.819,4.642-2.287,9.062-6.929,9.882l0,0
		C215.501,29.184,214.997,29.227,214.502,29.227z"/>
	<path style="fill:#231F20;" d="M174.276,40.013c-3.593,0-6.801-2.244-8.021-5.623l-2.91-8.013
		c-1.698-4.395,0.486-9.335,4.89-11.034c4.395-1.698,9.335,0.486,11.034,4.89c0.043,0.102,0.077,0.205,0.111,0.307l2.918,8.021
		c1.613,4.429-0.674,9.327-5.103,10.94C176.265,39.842,175.275,40.013,174.276,40.013z"/>
	<path style="fill:#231F20;" d="M102.4,81.502c-2.526,0-4.915-1.118-6.537-3.055l-5.487-6.537
		c-2.953-3.669-2.364-9.045,1.306-11.998c3.567-2.867,8.755-2.406,11.767,1.033l5.487,6.537c3.029,3.61,2.56,8.994-1.05,12.023
		C106.351,80.794,104.405,81.502,102.4,81.502z"/>
	<path style="fill:#231F20;" d="M72.96,110.933c-2.005,0-3.942-0.708-5.478-1.997l-6.537-5.487
		c-3.55-3.106-3.908-8.491-0.802-12.041c3.012-3.439,8.201-3.9,11.767-1.033l6.537,5.487c3.61,3.029,4.079,8.414,1.05,12.023
		C77.875,109.815,75.486,110.933,72.96,110.933z"/>
	<path style="fill:#231F20;" d="M31.471,182.818c-0.99,0-1.98-0.179-2.91-0.521l-8.021-2.918c-4.463-1.527-6.835-6.374-5.308-10.837
		s6.374-6.835,10.837-5.308c0.102,0.034,0.205,0.077,0.307,0.111l8.013,2.91c4.437,1.596,6.741,6.485,5.146,10.914
		C38.306,180.574,35.081,182.835,31.471,182.818z"/>
	<path style="fill:#231F20;" d="M20.702,223.044c-0.495,0-0.998-0.043-1.485-0.128l-8.405-1.485c-4.642-0.819-7.74-5.248-6.921-9.89
		s5.239-7.74,9.882-6.921l8.405,1.485c4.642,0.811,7.748,5.239,6.929,9.882C28.399,220.066,24.849,223.044,20.702,223.044z"/>
	<path style="fill:#231F20;" d="M12.279,307.507c-4.71,0-8.533-3.823-8.525-8.542c0-4.147,2.978-7.689,7.057-8.397l8.405-1.485
		c4.642-0.819,9.071,2.278,9.89,6.929c0.819,4.651-2.278,9.071-6.929,9.89l-8.405,1.485
		C13.278,307.465,12.783,307.507,12.279,307.507z"/>
	<path style="fill:#231F20;" d="M23.458,349.175c-4.71,0-8.533-3.814-8.542-8.525c0-3.593,2.244-6.801,5.623-8.03l8.021-2.918
		c4.429-1.613,9.327,0.674,10.94,5.103s-0.674,9.327-5.111,10.94l-8.013,2.91C25.438,348.996,24.457,349.175,23.458,349.175z"/>
	<path style="fill:#231F20;" d="M66.432,423.603c-4.71,0-8.533-3.823-8.533-8.533c0-2.526,1.118-4.915,3.046-6.537l6.537-5.487
		c3.55-3.106,8.934-2.748,12.041,0.802c3.106,3.55,2.748,8.934-0.802,12.041c-0.085,0.077-0.179,0.154-0.273,0.23l-6.537,5.487
		C70.374,422.895,68.437,423.603,66.432,423.603z"/>
	<path style="fill:#231F20;" d="M96.93,454.101c-4.71,0-8.533-3.823-8.525-8.542c0-2.005,0.708-3.934,1.988-5.47l5.487-6.537
		c2.953-3.669,8.32-4.258,11.998-1.306c3.669,2.953,4.258,8.32,1.306,11.998c-0.077,0.094-0.154,0.188-0.23,0.273l-5.487,6.537
		C101.845,452.983,99.456,454.101,96.93,454.101z"/>
	<path style="fill:#231F20;" d="M171.366,497.075c-4.71,0-8.533-3.814-8.533-8.533c0-0.998,0.171-1.988,0.512-2.918l2.91-8.013
		c1.613-4.429,6.502-6.716,10.931-5.103c4.429,1.613,6.716,6.502,5.103,10.931l-2.918,8.021
		C178.15,494.831,174.95,497.075,171.366,497.075z"/>
	<path style="fill:#231F20;" d="M213.035,508.245c-0.495,0-0.998-0.043-1.485-0.137c-4.642-0.811-7.748-5.239-6.929-9.882l0,0
		l1.485-8.405c0.819-4.642,5.248-7.74,9.89-6.929c4.642,0.819,7.74,5.248,6.921,9.89l0,0l-1.485,8.405
		C220.715,505.267,217.173,508.245,213.035,508.245z"/>
	<path style="fill:#231F20;" d="M298.965,508.245c-4.139,0-7.68-2.978-8.397-7.057l-1.485-8.405
		c-0.819-4.642,2.278-9.071,6.929-9.89c4.651-0.819,9.071,2.278,9.89,6.929l1.485,8.405c0.819,4.642-2.287,9.062-6.929,9.882l0,0
		C299.964,508.203,299.46,508.245,298.965,508.245z"/>
	<path style="fill:#231F20;" d="M340.634,497.075c-3.584,0-6.784-2.244-8.013-5.615l-2.918-8.021
		c-1.613-4.429,0.674-9.327,5.111-10.931c4.429-1.613,9.327,0.674,10.931,5.103l2.91,8.013c1.613,4.429-0.674,9.327-5.103,10.94
		C342.622,496.905,341.632,497.075,340.634,497.075z"/>
	<path style="fill:#231F20;" d="M415.07,454.101c-2.526,0.009-4.924-1.109-6.537-3.046l-5.487-6.537
		c-3.106-3.55-2.748-8.934,0.802-12.041c3.55-3.106,8.934-2.748,12.041,0.802c0.077,0.085,0.154,0.179,0.23,0.273l5.487,6.536
		c3.029,3.61,2.551,8.994-1.067,12.023C419.004,453.393,417.075,454.101,415.07,454.101z"/>
	<path style="fill:#231F20;" d="M445.568,423.603c-2.005,0-3.942-0.708-5.478-1.997l-6.537-5.487
		c-3.669-2.953-4.258-8.32-1.306-11.998c2.953-3.669,8.32-4.258,11.998-1.306c0.094,0.077,0.188,0.154,0.273,0.23l6.537,5.487
		c3.61,3.029,4.079,8.414,1.05,12.023C450.483,422.485,448.094,423.603,445.568,423.603z"/>
	<path style="fill:#231F20;" d="M488.542,349.175c-0.998,0-1.98-0.179-2.918-0.521l-8.013-2.91
		c-4.429-1.613-6.716-6.502-5.103-10.931s6.502-6.716,10.931-5.111l8.021,2.918c4.429,1.604,6.716,6.502,5.111,10.931
		C495.343,346.931,492.134,349.175,488.542,349.175z"/>
	<path style="fill:#231F20;" d="M499.721,307.507c-0.503,0-0.998-0.043-1.493-0.128l-8.405-1.485
		c-4.642-0.819-7.74-5.239-6.929-9.89c0.811-4.651,5.239-7.74,9.89-6.929l8.405,1.485c4.642,0.811,7.748,5.239,6.929,9.882
		C507.409,304.529,503.868,307.507,499.721,307.507z"/>
	<path style="fill:#231F20;" d="M491.298,223.044c-4.71,0-8.533-3.814-8.533-8.533c0-4.147,2.978-7.697,7.057-8.405l8.405-1.485
		c4.642-0.819,9.071,2.278,9.89,6.921s-2.287,9.071-6.929,9.89l-8.405,1.485C492.297,223.002,491.793,223.044,491.298,223.044z"/>
	<path style="fill:#231F20;" d="M480.529,182.818c-4.71,0.017-8.55-3.789-8.567-8.499c-0.017-3.61,2.244-6.835,5.649-8.064
		l8.013-2.91c4.395-1.698,9.335,0.486,11.034,4.89c1.698,4.403-0.486,9.335-4.89,11.034c-0.102,0.043-0.205,0.077-0.307,0.111
		l-8.021,2.918C482.509,182.639,481.519,182.818,480.529,182.818z"/>
	<path style="fill:#231F20;" d="M439.04,110.933c-4.71,0-8.533-3.823-8.533-8.533c0-2.526,1.118-4.915,3.046-6.537l6.537-5.487
		c3.669-2.953,9.045-2.364,11.998,1.306c2.867,3.567,2.406,8.755-1.033,11.767l-6.537,5.487
		C442.982,110.225,441.045,110.933,439.04,110.933z"/>
	<path style="fill:#231F20;" d="M409.6,81.502c-4.71,0-8.533-3.823-8.533-8.533c0-2.005,0.708-3.951,1.997-5.487l5.487-6.537
		c3.106-3.55,8.491-3.908,12.041-0.802c3.439,3.012,3.9,8.201,1.033,11.767l-5.487,6.537
		C414.515,80.384,412.126,81.502,409.6,81.502z"/>
	<path style="fill:#231F20;" d="M337.724,40.013c-4.71,0-8.533-3.814-8.533-8.533c0-0.998,0.171-1.988,0.512-2.918l2.918-8.021
		c1.527-4.463,6.374-6.835,10.837-5.308s6.835,6.374,5.308,10.837c-0.034,0.102-0.077,0.205-0.111,0.307l-2.91,8.013
		C344.525,37.769,341.316,40.013,337.724,40.013z"/>
	<path style="fill:#231F20;" d="M297.498,29.227c-0.495,0-0.998-0.043-1.485-0.128c-4.642-0.811-7.748-5.239-6.929-9.882l0,0
		l1.485-8.405c0.819-4.642,5.239-7.74,9.89-6.929c4.651,0.811,7.74,5.239,6.929,9.89l0,0l-1.485,8.405
		C305.178,26.249,301.636,29.227,297.498,29.227z"/>
	<path style="fill:#231F20;" d="M149.333,79.778c-3.055,0-5.871-1.621-7.398-4.267l-17.067-29.559
		c-2.33-4.096-0.896-9.31,3.2-11.639c4.062-2.304,9.216-0.922,11.58,3.106l17.067,29.559c2.355,4.079,0.956,9.301-3.123,11.657
		C152.294,79.386,150.827,79.778,149.333,79.778z"/>
	<path style="fill:#231F20;" d="M71.236,157.867c-1.502,0-2.97-0.393-4.267-1.143L37.41,139.657
		c-4.062-2.381-5.427-7.612-3.046-11.674c2.364-4.028,7.518-5.41,11.58-3.106l29.559,17.067c4.079,2.355,5.478,7.578,3.123,11.657
		C77.099,156.237,74.283,157.867,71.236,157.867z"/>
	<path style="fill:#231F20;" d="M41.694,388.267c-4.71,0-8.533-3.823-8.533-8.533c0-3.046,1.63-5.862,4.267-7.39l29.559-17.067
		c4.062-2.381,9.293-1.024,11.674,3.046c2.381,4.062,1.024,9.293-3.046,11.674c-0.034,0.017-0.068,0.043-0.102,0.06l-29.559,17.067
		C44.663,387.874,43.196,388.267,41.694,388.267z"/>
	<path style="fill:#231F20;" d="M132.267,478.848c-4.71-0.009-8.533-3.831-8.525-8.542c0-1.493,0.393-2.961,1.143-4.258
		l17.067-29.559c2.33-4.096,7.535-5.53,11.639-3.2s5.53,7.535,3.2,11.639c-0.017,0.034-0.034,0.068-0.06,0.094l-17.067,29.559
		C138.138,477.227,135.322,478.848,132.267,478.848z"/>
	<path style="fill:#231F20;" d="M379.733,478.848c-3.055,0-5.871-1.621-7.398-4.267l-17.067-29.559
		c-2.33-4.096-0.896-9.31,3.2-11.639c4.062-2.304,9.216-0.922,11.58,3.106l17.067,29.559c2.355,4.079,0.956,9.301-3.123,11.657
		C382.694,478.456,381.227,478.848,379.733,478.848z"/>
	<path style="fill:#231F20;" d="M470.306,388.267c-1.502,0-2.97-0.393-4.267-1.143l-29.559-17.067
		c-4.062-2.381-5.427-7.612-3.046-11.674c2.364-4.028,7.518-5.41,11.58-3.106l29.559,17.067c4.079,2.355,5.478,7.578,3.123,11.657
		C476.169,386.637,473.353,388.267,470.306,388.267z"/>
	<path style="fill:#231F20;" d="M440.764,157.867c-4.71,0-8.533-3.823-8.533-8.533c0-3.046,1.63-5.862,4.267-7.39l29.559-17.067
		c4.096-2.33,9.31-0.896,11.639,3.2c2.304,4.062,0.922,9.216-3.106,11.58l-29.559,17.067
		C443.733,157.474,442.266,157.867,440.764,157.867z"/>
	<path style="fill:#231F20;" d="M362.667,79.778c-4.71-0.009-8.533-3.831-8.525-8.542c0-1.493,0.393-2.961,1.143-4.258
		l17.067-29.559c2.381-4.062,7.612-5.427,11.674-3.046c4.028,2.364,5.41,7.518,3.106,11.58l-17.067,29.559
		C368.538,78.157,365.722,79.778,362.667,79.778z"/>
</g>
<g>
	<path style="fill:#006DF0;" d="M59.733,264.533h-51.2C3.823,264.533,0,260.71,0,256c0-4.71,3.823-8.533,8.533-8.533h51.2
		c4.71,0,8.533,3.823,8.533,8.533C68.267,260.71,64.444,264.533,59.733,264.533z"/>
	<path style="fill:#006DF0;" d="M256,512c-4.71,0-8.533-3.823-8.533-8.533v-51.2c0-4.71,3.823-8.533,8.533-8.533
		c4.71,0,8.533,3.823,8.533,8.533v51.2C264.533,508.177,260.71,512,256,512z"/>
	<path style="fill:#006DF0;" d="M503.467,264.533h-59.733c-4.71,0-8.533-3.823-8.533-8.533c0-4.71,3.823-8.533,8.533-8.533h59.733
		c4.71,0,8.533,3.823,8.533,8.533C512,260.71,508.177,264.533,503.467,264.533z"/>
</g>
<path style="fill:#231F20;" d="M377.421,135.006c-3.328-3.328-8.738-3.328-12.066,0l-92.032,92.032
	c-5.188-2.97-11.085-4.497-17.067-4.429c-5.632,0.128-11.145,1.664-16.034,4.454l-43.785-43.785
	c-3.328-3.345-8.747-3.354-12.092-0.026c-3.345,3.328-3.354,8.747-0.026,12.092l43.435,43.435
	c-10.035,15.991-5.214,37.086,10.778,47.13c15.991,10.035,37.086,5.214,47.13-10.778c6.972-11.11,6.972-25.233,0-36.343
	l91.759-91.708C380.749,143.744,380.749,138.334,377.421,135.006z M244.907,268.988c-6.767-6.562-6.929-17.365-0.358-24.132
	c3.149-3.243,7.458-5.103,11.972-5.18c4.54-0.128,8.926,1.613,12.143,4.813c6.903,6.426,7.287,17.22,0.862,24.124
	s-17.22,7.287-24.124,0.862C245.239,269.312,245.069,269.15,244.907,268.988z"/>
<g>
</g>
<g>
</g>
<g>
</g>
<g>
</g>
<g>
</g>
<g>
</g>
<g>
</g>
<g>
</g>
<g>
</g>
<g>
</g>
<g>
</g>
<g>
</g>
<g>
</g>
<g>
</g>
<g>
</g>
</svg>
